/* XPM */
static char *_9f806a7891945a5ba2c20c1332bc0bariTYcVtfFL3Lt29d[] = {
/* columns rows colors chars-per-pixel */
"64 64 156 2 ",
"   c #3B2A04",
".  c #412F03",
"X  c #463105",
"o  c #543D05",
"O  c #583D06",
"+  c #5D4406",
"@  c #654706",
"#  c #674907",
"$  c #684907",
"%  c #6A4709",
"&  c #6A4C09",
"*  c #724E06",
"=  c #724F0A",
"-  c #6F5107",
";  c #745207",
":  c #7A5407",
">  c #7D5A07",
",  c #755309",
"<  c #7B5409",
"1  c #7E590A",
"2  c #835D06",
"3  c #8A5E07",
"4  c #815708",
"5  c #845C08",
"6  c #8C5E09",
"7  c #876205",
"8  c #8C6306",
"9  c #8F6C03",
"0  c #8B6309",
"q  c #926407",
"w  c #9C6707",
"e  c #956B06",
"r  c #9B6C06",
"t  c #936509",
"y  c #996609",
"u  c #946809",
"i  c #9A6C09",
"p  c #9C7105",
"a  c #9C710A",
"s  c #A16F07",
"d  c #A16F0C",
"f  c #A47305",
"g  c #A97603",
"h  c #A77D03",
"j  c #AD7C04",
"k  c #A37209",
"l  c #AA7209",
"z  c #AC7B09",
"x  c #B07707",
"c  c #B37D06",
"v  c #B97D07",
"b  c #B07709",
"n  c #B47C0A",
"m  c #BB7D0A",
"M  c #BE7C10",
"N  c #C27E06",
"B  c #AD8205",
"V  c #B48205",
"C  c #BB8306",
"Z  c #BD8904",
"A  c #BB8309",
"S  c #C28507",
"D  c #C48A05",
"F  c #C98C06",
"G  c #C38608",
"H  c #CE830F",
"J  c #C58A08",
"K  c #CB8B09",
"L  c #D58E06",
"P  c #D28E08",
"I  c #C59104",
"U  c #CD9205",
"Y  c #CE9E06",
"T  c #D39305",
"R  c #DA9505",
"E  c #D49B06",
"W  c #DC9B06",
"Q  c #D79308",
"!  c #D99409",
"~  c #E78B08",
"^  c #E49705",
"/  c #E29B06",
"(  c #EF9E03",
")  c #E19908",
"_  c #E99E08",
"`  c #CBA107",
"'  c #DEA406",
"]  c #D1A903",
"[  c #D6B704",
"{  c #DCB505",
"}  c #D3BC04",
"|  c #DBBC05",
" . c #E3A205",
".. c #EBA405",
"X. c #E4AA04",
"o. c #EBAA05",
"O. c #E6A30D",
"+. c #F3A506",
"@. c #F5AB06",
"#. c #FAAC06",
"$. c #E6B505",
"%. c #EBB305",
"&. c #E5BE04",
"*. c #ECBC05",
"=. c #F2B205",
"-. c #F9B305",
";. c #F4BC05",
":. c #FCBD05",
">. c #D1C603",
",. c #D9C703",
"<. c #D5CB04",
"1. c #DFCB06",
"2. c #DDD404",
"3. c #DCD903",
"4. c #E5C303",
"5. c #ECC304",
"6. c #E4CB05",
"7. c #ECCB04",
"8. c #F5C305",
"9. c #FCC305",
"0. c #F3CB05",
"q. c #FDCA04",
"w. c #E4D305",
"e. c #EBD605",
"r. c #E4DB05",
"t. c #EDDB05",
"y. c #F3D204",
"u. c #FCD404",
"i. c #F2DB04",
"p. c #FEDC04",
"a. c #E7E202",
"s. c #ECE404",
"d. c #EEEA04",
"f. c #F3E504",
"g. c #FCE305",
"h. c #F2ED03",
"j. c #FDED03",
"k. c #F5F302",
"l. c #F6F501",
"z. c #F4F004",
"x. c #F4F204",
"c. c #F9F503",
"v. c #FAF702",
"b. c #FAF106",
"n. c #F9F704",
"m. c #FAF704",
"M. c #FBFB00",
"N. c #F8F802",
"B. c #FBF903",
"V. c #FCFB00",
"C. c #FCFB02",
"Z. c yellow",
"A. c #FBFA04",
"S. c #FBFB04",
"D. c #FBF806",
"F. c #FFFE04",
/* pixels */
"Z.Z.Z.Z.Z.Z.Z.F.Z.F.F.F.F.F.U 9.p.W #.+.A C 2 o l y k :   6 = N N 5 t = M z H H 2 A _ e R D  .p.p.o.F.F.q.Z.F.F.Z.Z.Z.Z.Z.Z.Z.Z.",
"Z.Z.Z.Z.Z.Z.V.Z.Z.A.m.M.A.u.U b.A.E #.#.V K 7 + z m 7 $ X < = % = 4 = , M 0 u 0 @ b W 2 P L R -.-.E A.A.j.p.Z.V.A.Z.V.Z.Z.Z.V.Z.",
"Z.Z.Z.V.Z.V.V.M.A.A.j.M.m.m.@.j.u.D =.#.C Q K a O.c 4 4 ; t % 4 d t k = 1 + = 5 @ z Z 7 R +...9.-.X.m.A.M.M.M.M.M.V.Z.V.V.Z.Z.Z.",
"Z.Z.Z.V.V.M.M.V.k.l.M.y.x.l.Z s.7.c N S t F G t n , & 0 , 1 @ , % O % % 5 1 1 a i F G 2 R $.W e.*.5.x.k.f.l.x.M.A.M.M.M.Z.V.Z.Z.",
"Z.M.Z.M.V.M.c.M.c.m.M.c.h.h.I 0.t.F T  .D P K q t , 4 d i 0 l l u % , : t t 0 d z J k 2 _ *.U f.i.0.k.k.h.l.M.m.c.c.c.M.M.V.Z.Z.",
"Z.Z.V.M.M.V.l.c.c.l.y.f.h.h.h ..*.c ! ' C P A 7 q 5 t t 7 , i y 0 4 t , 5 t t t t v w 7  ./ c %.@.R d.d.h.k.M.l.l.l.Z.M.M.M.V.Z.",
"Z.Z.M.M.M.c.M.k.l.h.y.f.h.s.Z X.e.R F D 2 S C 6 6 > i 6 , : 3 G n A z , , 0 5 u e J z 8 E C e X.e.V 5.d.s.h.k.d.x.l.l.c.M.Z.F.Z.",
"Z.M.A.M.c.k.x.l.h.h.b.h.s.s.U *.i.C D / s S K v 3 i r k q 5 i W b t ~ b f a i 0 f ! v n W o.K s.f.r 5.d.0.h.h.h.c.x.l.M.l.A.Z.Z.",
"F.V.V.A.c.k.x.k.l.d.i.a.3.2.D ' 6.J U F 7 z f k i t i f 8 - 1 0 o   : 2 q 5 8 S z A y r E / i | r.2 ' a.a.a.s.l.h.d.M.M.l.M.M.Z.",
"Z.F.A.V.M.c.k.l.d.j.h.4.t.s.T 5.t.+.A D k A C v Q S c v N k A A 2 e K G S z v ! s c V f R +.C 0.g...f.j.a.7.b.a.d.x.l.l.l.M.Z.F.",
"F.p.V.h.k.k.h.h.a.7.Z.*.7.j...6.w. .+. .C S C p S c B z v v ) _ F U ! T ! P G J c b S Z E ..^ w.i.o.w.r.%.Z.h.e.k.y.y.l.h.j.m.F.",
"q.j.V.f.k.h.t.7.a.a.8.s.2.} V ' { C K ' C c e f A 7 > e 8 7 2 7 f w C i A V 8 c p f C C c c E | <.{ >.} f.&.&.a.h.i.f.c.i.A.Z.F.",
"F.A.m.x.k.h.s.f.f.j.a.,.j.7.Z ;.-.U F W c ! T Y / L ) / ! E ! W ..#.#.F / ' F ) F S / E R / &.y.7.C o.c.2.&.s.r.a.d.h.k.x.m.A.F.",
"Z.A.m.x.k.a.5.5. .f.r.2.*.b.V Z -.o.'  .f ..+.' %.C / *.o.+.W E :.#.;.E ! T F F I A =.D D W W ..q 2 c.4.` j.f.3.f.f.h.h.x.v.u.Z.",
"o.D R ;.;.' V f 9 o.X.| I B 9.B E R E %.U  .C e U 8 j F R ..W W ! ! C Z U A ! C D +...A E %. ...T q.f j j ..W I E Z p V Z @.U U ",
"g.:.:.5.f.=.e.t.r.p.p.>.e.B $.j.;.=.=.y.} e.0.| t.^ =.f.e.q.:.p.p.V.0.7.t.$.w.i.6.e.w.{ =.9.F ( j.q g 8.W 6.4.' %.X...0.s.f.b.9.",
"p.:.9.e.f.%.^ t.| 0.e.[ e.=.=.;.j.X.B 7.<.f.p.r.s.0.%.t.5.:.:.g.9.l.f.s.0.X. .%.' 4.6.W ;.g q j.( F 8.-.{ w.e.1.i.w.$.i.7.0.A.p.",
"W W ..Q F c 8 U e A  .T %.T R ` B 9.B U | X...9 p Z  .;.;.R D o.U T @.A m p Z E I W ..j j f q.T ../ =.R A ..@.D C R V U A C E R ",
"T W +.%.*./ G %. .+...f  .' o.-.Z V b.;.2.t.f. .5.5.s.c.k.M.A.F.Z.u.M.h.k.d.f.h.r.f.j.] 4.c.2 q ..R E D D #.C I F F P R Q ;.-.:.",
"W E Q R / W L / ` T R c W F T =.8.Z 7.b.,.a.j.s.d.d.f.k.x.c.M.F.F.F.l.h.k.h.s.s.r.a.*.<.c.o.C 7.y.&./ R E / D F ) F ' / U #.+.+.",
"8 2 7 8 e > 9 A f i c C ' K c { ' V [ 2.s.8.a.a.7.t.h.k.f.A.j.q.Z.A.A.i.M.f.i.h.a.&.*.f.>.>.[ >.| E B c A Z f e V 8 c S e A w f ",
"_ ) C v z z c A p A G C  .+...w.e...f.7.*.M.7.a.h.h.k.k.k.M.p.F.Z.F.j.k.c.y.y.h.t.f.V.$.w.w...f.w.^ ..R S S c b J S P ! Q Q U F ",
"A A s N v c S Q c A A f K A ..t.5.T s.r.4.h.b.h.x.k.b.m.V.M.A.F.F.Z.c.l.l.l.k.h.a.l.7.a.j.f...g.0.V @.Q p c v f P v z S G F t > ",
"7 > * 8 k i q i f f z 8 F U J 6.' D 2.3.t.i.h.h.x.h.l.V.m.M.M.F.Z.M.M.M.c.c.h.h.l.d.a.a.a.' 2 r.| p / Y k e v j J 8 5 8 0 :   o ",
"! i 5 t k i i 5 v K S f ) F Z i.&.F f.d.h.b.h.h.c.k.k.c.M.V.F.Z.Z.Z.V.M.c.l.x.c.h.h.h.y.s.5.p s.s.U ..W c c ! f t e i f b ~ y b ",
"G 6 : , 6 r > q 3 v S 3 D D R w.X.Z s.h.f.y.k.k.k.M.c.M.M.M.Z.Z.F.V.M.M.c.l.l.x.h.x.h.t.h.5.V y. .e D E 7 c J i u 5 0 : , z A c ",
"y k , 7 t t 5 6 7 A P v ' Q V *...h h.h.f.y.x.A.l.c.M.M.M.V.V.Z.Z.Z.M.M.M.Z.l.k.x.l.x.h.d.d.R =.%.c W / 5 r c u t i t 4 , 0 4 t ",
"l l 0 e d < : t 8 F P D  .Q F e.0.I k.h.l.c.c.M.M.l.M.Z.M.Z.Z.Z.Z.Z.M.V.M.M.l.V.M.M.c.h.k.x.8.t.f.U *._ 2 k J z k 7 t t : , # u ",
", @ 1 < 6 = , z u G F u D N V 7.s.Z z.k.y.c.x.c.c.M.M.M.V.Z.Z.Z.Z.Z.M.Z.M.M.M.M.M.x.l.f.x.h.0.;.e.W %.W 7 G F a a < < 5 % % o & ",
"5 @ y = 1 1 A O.a P Q A +.=.D u.j.@.m.A.M.j.M.A.M.M.V.Z.V.Z.V.Z.Z.Z.Z.M.M.M.V.c.A.M.M.A.V.M.X.@.9...+.! 2 D z @ 5 , O 1 : d u d ",
"% % 4 X @ 5 M z + 7 F V #.#.R M.b.U u.A.M.M.F.Z.Z.F.V.Z.Z.Z.Z.Z.Z.V.Z.Z.Z.Z.Z.M.V.Z.g.j.V.A.E -.-.R P P 2 R z % 0 t t M , = 1 ; ",
"H = 6   < d w l o 2 C A +.#.' u.:.U Z.F.F.Z.F.Z.Z.Z.Z.Z.Z.Z.Z.Z.Z.Z.Z.Z.Z.F.Z.Z.F.Z.Z.q.F.F.o.p.p. .G E t _ A 4 P K z n = t 1 M ",
"m 4 t = z z K P 5 A  .e R D  .g.p.o.F.F.q.F.F.Z.Z.Z.F.Z.Z.Z.Z.Z.Z.Z.Z.Z.Z.Z.Z.F.F.Z.F.F.F.F.U 9.p.W #.+.A C 2 o f s a <   6 ; H ",
"= 4 = : n y t 6 # c ) > P P ! #.-.E A.A.j.p.Z.V.F.V.Z.Z.Z.M.Z.Z.Z.Z.Z.Z.Z.V.V.Z.Z.A.M.F.A.u.U A.D.! #.#.V K 7 + z m 7 % X < = % ",
"d t d , 5 O * 2 @ j J 2 R +...9.-. .m.A.M.M.M.M.M.V.V.V.M.Z.Z.Z.Z.Z.M.V.V.V.F.V.M.M.j.M.m.A.@.f.y.D =.@.C Q K a _ n 4 4 = y % 4 ",
"% O % % 5 < > a i K S 7 ! $.W e.;.7.x.l.f.x.c.Z.A.M.M.M.M.Z.Z.Z.Z.Z.Z.M.V.M.M.M.M.l.l.y.z.h.Z f.7.C N S u K D q z , = 2 < < % , ",
"0 & = , t t 0 k l J k 2 _ *.U f.t.8.k.k.k.k.c.c.m.l.V.V.M.Z.Z.Z.Z.Z.Z.V.V.V.M.c.c.c.M.c.l.h.I 0.e.U Q _ D P K t y , < d t t l l ",
"t 5 t , 5 u t t u V w 2 / W V %.=.R a.h.h.k.c.k.x.l.V.M.M.V.V.Z.Z.V.Z.M.M.A.c.l.M.c.0.f.h.h.h  .*.c T ' C P A 7 0 5 u t 5 , d y ",
"n A b , : 0 > e i G c 9 ! Z e  .e.V 7.s.s.h.k.x.x.c.l.c.M.M.Z.Z.Z.M.M.M.M.M.c.x.k.h.y.f.h.s.Z X.w.R F D 2 S v 6 q > i 6 , , 5 G ",
"z y ~ b f i i t f ! c c W o.T s.f.r 5.h.y.d.h.d.l.x.k.M.M.m.V.F.Z.Z.M.M.c.k.x.c.h.h.l.h.d.f.U *.i.Z J / f S K v 2 y i k t 0 i ! ",
"O   : 2 8 5 q J j v u r E / e | r.2 ' a.a.a.s.c.h.h.c.V.c.M.Z.Z.F.A.V.A.M.x.h.h.l.d.t.a.3.2.Z ' 1.D U F 8 z l f r e i k 8 , > 0 ",
"5 u K S G b v T k v V k R +.v 0.p...f.j.a.7.b.a.h.k.k.l.l.M.F.Z.F.M.M.c.c.c.x.c.h.j.h.5.t.f.T 5.e.+.C F k V A c ! S c c N s A C ",
"J Q ! T ! K S G c z S S R ../ e.f.o.2.r.o.Z.h.e.h.y.y.v.l.j.V.Z.Z.p.M.x.k.k.h.h.a.7.c.5.7.f.o.6.w...+. .C D C p S z z z v C W _ ",
"f i A u A A 8 V p f C C V B E } >.{ >.} h.&.&.a.h.i.f.v.i.c.M.F.q.j.F.f.k.h.t.7.a.a.*.f.2.[ V X.{ V F ' C c i f A 8 2 e 8 2 2 8 ",
"+.#.#.U / ' J / F S / E R W &.y.7.C o.j.<.&.f.r.s.d.h.x.h.x.F.Z.F.A.l.x.x.d.h.d.f.j.t.>.j.7.V 8.=.T F W c R T ` / L W  .E ! E W ",
":.#.;.E W T F F I V =.F D W T ..8 6 l.4.] j.f.3.h.s.d.h.x.m.u.Z.F.A.M.l.h.d.5.5. .h.r.2.;.c.V Z -.o.'  .f ..@./ =.A / *.o.+.W T ",
"! T C Z U C Q C D +...V T =. ...T q.f j j ..W D E Z p C Z @.T U o.F R ;.;. .Z k e ..X.| U B 9.B E Q E %.T  .A e P 8 z F !  .W W ",
"p.A.0.7.e.$.w.y.6.t.w.$.-.8.F ( j.t g 8.' 6.4.' $. ...0.s.f.b.9.g.:.:.*.t.%.7.s.w.g.g.<.7.B { j.;.%.=.y.[ e.0.| r.^ =.f.y.q.:.p.",
"9.j.f.s.y...X.%.' 4.6.W 8.g q j.( F 9.-.{ w.t.1.i.6.%.t.7.0.A.p.p.:.q.e.f.%./ e.{ 0.e.[ y.=.=.;.j.$.B 7.>.g.p.w.a.7.%.i.5.:.:.g.",
"U E @.V c r Z T I W o.j j f q.T .. .%.E C ..+.D C T Z U A A T R W W ..R F c 8 L e C  .T %.E R E B 9.B U | o.o.e f Z ' ;.;.W D ..",
"F.u.A.z.k.h.s.f.3.f.f.] 4.c.2 q ..R E D D -.A U F F K W E ;.-.:.Q ' +.o.*./ C %.' +...f / ' o.-.Z B A.*.2.r.f. .5.5.s.h.x.A.Z.Z.",
"F.A.A.z.k.h.d.s.a.s.*.<.b.o.C 7.e.*./ R E ^ S J / F ' / U #.+.+.W ! Q E / W T / ` T W c W I T =.;.Z 7.j.,.a.j.d.d.d.d.l.x.x.M.F.",
"Z.F.A.i.l.f.t.h.a.&.&.h.>.>.[ <.| E j V A S f p c 8 c S i A w f 8 5 7 8 e > 8 A f i c c  .I c { X.V [ 2.t.5.a.a.7.t.h.x.f.M.j.q.",
"F.M.j.l.M.y.y.h.e.f.M.%.w.w.X.p.w.^ ..R Z G j b J S P ! P T U I _ W A V z c c C a A D C  .@...w.w...j.7.5.M.7.a.h.h.k.k.x.F.p.Z.",
"Z.A.M.l.c.k.k.h.a.b.7.a.j.f...p.0.V @.R p c v f P v b J S K e > C A s N v n S ! m A V f J A +.e.5.E i.r.5.h.l.d.l.j.c.c.k.A.Z.Z.",
"Z.F.M.z.m.c.h.h.l.d.a.a.a.' 2 r.| i / Y k u A z J 8 5 8 3 * X o 0 > * 0 f i q i k f j 8 F U D 6. .Z 2.3.t.t.d.j.h.x.x.V.A.Z.A.F.",
"Z.V.V.M.M.l.h.A.h.h.d.0.d.5.p s.t.P o.W n v ! f u i a k b ~ y z ! e 0 0 d i u 7 m K S l / D Z i.*.U s.d.h.l.h.h.c.k.x.M.M.M.Z.Z.",
"F.Z.V.M.l.l.c.h.h.l.h.f.s.5.V y.X.e Z E 8 b D u t > 0 , , b A n G 6 : , 6 i > q 7 A N 2 D F R w.X.Z f.f.f.y.z.k.l.c.M.c.M.M.M.Z.",
"Z.Z.V.M.M.Z.l.l.k.M.k.h.h.a.R %.%.c )  .7 w V t t u t 5 , 0 1 t y i , 0 t y 4 q 7 A P C ' T c *. .h h.h.f.y.k.c.l.k.Z.M.M.Z.Z.F.",
"Z.Z.M.M.M.M.l.M.c.c.k.k.l.l.8.i.f.U *. .2 a K z k 0 t y < , & 0 l l t t d < : q 8 K P D _ T K t.0.I k.h.c.c.l.m.M.M.M.M.M.M.Z.Z.",
"Z.V.Z.M.M.M.M.A.M.l.l.f.l.x.5.;.e.W %.R 7 A F i a 4 : 5 % @ O & , % 1 , 0 = ; b u S D u D N b 7.f.Z c.l.y.l.l.M.c.M.M.M.V.Z.Z.Z.",
"Z.Z.Z.Z.V.M.V.A.A.A.M.M.A.m.X.-.8...+.R 2 J z @ 2 * O 5 < d t d 4 % y = > 4 c O.a P ! C +.=.I u.f.@.S.z.m.j.M.A.V.Z.V.M.V.Z.V.Z.",
"Z.Z.V.Z.Z.Z.V.F.Z.V.p.j.A.A.Y -.-.R L T 2 W x @ 3 u t n , , 1 = % % 1 X % 7 m z + 7 K V #.#.R M.A.U u.S.M.F.F.Z.Z.M.V.Z.Z.Z.Z.Z.",
"Z.Z.Z.Z.Z.Z.Z.Z.Z.F.Z.q.F.Z...p.p._ S R e _ C 5 P H z n = t 1 M H , 6   : k w l o 2 A A +.#.W p.:.U F.F.F.F.Z.F.F.Z.Z.Z.Z.Z.Z.Z."
};
