/* XPM */
static char *e89ffe543ccb4e59ede742ee112a1c098mOBQTWFlR3dCytW[] = {
/* columns rows colors chars-per-pixel */
"64 64 93 2 ",
"   c #88BFEC",
".  c #85C0EE",
"X  c #8BC3EE",
"o  c #95C3E7",
"O  c #98C3E7",
"+  c #94C4ED",
"@  c #9BC6ED",
"#  c #96CAEE",
"$  c #9EC9EE",
"%  c #86C2F3",
"&  c #8CC5F1",
"*  c #8EC9F9",
"=  c #93C6F1",
"-  c #99C6F1",
";  c #95CAF2",
":  c #9CCCF2",
">  c #92CEF9",
",  c #9DD0F5",
"<  c #96D0FA",
"1  c #9AD1F9",
"2  c #A9C7E7",
"3  c #AFCAE7",
"4  c #A2C6ED",
"5  c #A3CBEE",
"6  c #ACCDED",
"7  c #B2CEEC",
"8  c #B8CEEB",
"9  c #ADD1EF",
"0  c #B4D1EE",
"q  c #BBD2EE",
"w  c #A4CDF2",
"e  c #ABCEF1",
"r  c #A5CFF8",
"t  c #B1CFF1",
"y  c #A5D1F4",
"u  c #ACD2F4",
"i  c #A3D4F9",
"p  c #ACD5F9",
"a  c #ACD9FB",
"s  c #B4D3F2",
"d  c #B9D3F0",
"f  c #B8D3F3",
"g  c #BDD3F0",
"h  c #B8D4F2",
"j  c #B9D5F3",
"k  c #BED6F1",
"l  c #BCD5F2",
"z  c #BCD4F3",
"x  c #B9D6F6",
"c  c #BED7F5",
"v  c #B7D8F7",
"b  c #BED8F3",
"n  c #B9D8F5",
"m  c #BADBF6",
"M  c #BCD9F5",
"N  c #BED9F4",
"B  c #BCD8F7",
"V  c #BFDBF6",
"C  c #B2D7F9",
"Z  c #B8D7F8",
"A  c #B2D9FB",
"S  c #B3DAFB",
"D  c #B5D8F9",
"F  c #B4D9F9",
"G  c #B8DBFB",
"H  c #BDD9F8",
"J  c #BDDBF9",
"K  c #BBDDFB",
"L  c #C2D5EB",
"P  c #C0D4ED",
"I  c #C0D4EE",
"U  c #C3D7EF",
"Y  c #C0D5F0",
"T  c #C0D7F2",
"R  c #C0D7F4",
"E  c #C3D8F1",
"W  c #C3DAF3",
"Q  c #C5DAF3",
"!  c #C0D8F4",
"~  c #C3D8F4",
"^  c #C3DBF5",
"/  c #C3D8F7",
"(  c #C6D9F4",
")  c #C4D8F7",
"_  c #C6DCF4",
"`  c #C5DCF7",
"'  c #C8DBF6",
"]  c #C2DBF8",
"[  c #C2DDF9",
"{  c #C1DDFA",
"}  c #C6DFF9",
"|  c #C8DEF8",
" . c #C5E0FC",
/* pixels */
"d 0 e s 6 u w 4 5 $ $ $ y y y y e 5 e v 9 6 7 0 j q b l q q R ) R 8 c l q q U P P ' E E M [ } l J c J d s 0 n 0 w s n s 0 s x s ",
"x s s u u u u y 6 5 i $ y w 4 5 y 5 w S 0 6 6 7 j q l l q q T ) c g E T q q 8 8 q E P P ! R d x d d x d q h s s 6 s h 0 6 6 t x ",
"t t s e 6 p u u y w 5 $ w @ 5 5 5 y u S 0 7 7 7 q 7 l j l E ~ ~ R x R } q q 8 q E E ( ' ' T d q 7 s 7 d M ) c s 7 s 0 7 7 s u s ",
"6 6 7 6 u S u u 6 $ $ $ : # $ 5 9 u s K n 0 0 0 h l l l ( ' U U R g ! } l q ( q P E P P R M d R 8 7 7 c ! R x 7 6 x s 7 s e 6 6 ",
"s s Z D u D e w $ $ $ w w : w 5 9 s s K v 7 7 0 d x c j q T q I 8 d l l R ! ( q q q q T E ` T q d d f [ c 7 s s 7 s s 0 x t t 7 ",
"s s s 6 6 w p r $ $ o , : $ w 9 0 u 9 S n 9 0 0 0 l ] c d g q q q 0 d M ! ( M E q q q E ! ( T j c B Z d d s 7 s t u 6 7 j x s s ",
"t e t 3 5 w p i , $ , w $ w u s s s C v v 0 0 0 q q 7 q 8 d 8 d q 8 q E M E l ! j j M ( ! E j j f Z x 7 7 7 7 0 s e 6 e Z d Z s ",
"t 6 s 6 6 w w : y y y 5 5 9 a 9 9 h 0 D G n q q s s 7 7 7 8 8 c T q q q j q q 0 j j b ` ! l j x s Z Z 7 s 7 0 0 6 s s 7 C s s t ",
"s 9 u w 5 4 $ $ u i y s 9 w 5 y 6 s s n J J j 0 x 7 s 7 x d R ) q 0 0 q s q 0 0 0 s j s 0 q j J s x s j h 0 0 M c Z s 6 0 t s t ",
"s 7 u 6 w 5 5 5 u D s 9 y 5 $ 5 u s 0 s x D x 0 j 0 7 7 c c ! d 8 8 7 8 7 7 0 n x s s s s 7 6 q C x n G [ n M j d s s 7 6 s s 0 ",
"7 s t 6 6 6 6 6 9 D a , $ y 9 9 e j q j n s s s j q x s x c 8 3 3 6 7 0 5 e 0 s x e e u 0 6 6 0 0 s n v n n M x x j j x 7 s s 7 ",
"t 6 0 0 9 0 6 6 u a y $ $ y u u s s 0 7 n h s j x d n x j c 7 2 3 2 6 6 3 e 4 y s e e y C s 7 s s 0 0 6 s s 0 M 0 x j s t t s s ",
"j j j 0 0 9 5 $ w a y 5 w 9 w u e 6 j j q s M j x b M x s C t C w 5 4 5 3 w 5 w 5 6 6 w C s s s 6 s s s h 0 s M j 0 d s t s x x ",
"c l l j 0 u 6 5 i a u u w 5 y 9 e s q j q ]  .s j j s s t e e r w 4 4 4 5 5 y w w 5 e w w u e e e t s 0 j q n M M 7 7 7 7 d s c ",
"J q 0 0 s s u u u u 9 y w w y 0 h 0 n b q V q 0 s s 6 6 e w 4 4 @ w r w 6 w u w : 4 w y w r r 6 e u s 7 s n n J J x 0 0 7 s d c ",
"J s 7 0 0 s v C p u e 5 y y S n j q M M b V s t e e e 5 4 4 w e w w 4 - $ 4 w w $ : w : : : u x s x x 0 j j s q E l 0 q q d s c ",
"j 0 0 n s s 0 C C u C C v n h v M n n h m h s s e e r w 4 4 $ w r w + + 5 5 5 , & ; ; , : : y D x x x J M E x j q j l l M 0 0 q ",
"[ q j j j j 0 0 9 9 9 0 s s n x J n s s h 9 s a u p e r 4 4 w w w : $ $ # : : , < & & ; ; : , a x s s x j b q j b l n M ! j j [ ",
"[ M M ! n j s 0 0 9 0 j n h v C v s v v 9 6 9 u u u u r @ 4 r u w 4 $ + # & + # X . & < i : , y n s 0 x j q q j q j j j x n l [ ",
"} } M s j M b M n v h n M n x D h 9 v v 6 6 9 u 5 e e A e e 6 y 5 $ o # X . X X # # . ; , , ; w D s s Z q j j J b M J  . . .[ [ ",
"j q q 0 0 0 E M q s s s j s 0 D s u x u 9 6 u S 9 5 u u a 9 6 5 y : + ; . . . . ; # + . # i : , u s 0 x n M M [ M ] M ] E b j l ",
"0 q q q 0 q E l q 0 9 0 s s j D u 0 y u 6 w e u 5 9 9 9 s a 5 $ $ , # X X . & & # , # > - : $ , u S v x 9 0 x j j q l l q q q l ",
"j j q E q q q q 0 q h 0 9 0 s 0 9 u u 6 6 u u C u u 9 y u a y , , ; ; + X + X & , 1 , , ; : y w y r v D u 6 s j b q q q 8 8 q l ",
"q 0 M q q 0 n 0 q n n h d 3 0 s u S p u u 6 9 s 9 w 6 9 w w : $ i i : # # > # > 1 , y , ; > : i : $ 5 s h 9 0 j q q j q s 0 q q ",
"q 0 j q q b M 8 q E j 0 6 9 s s s S u y 3 y 6 s p y e e y w w o @ 5 a y , ; < * % > w $ + + : r @ @ 5 C 8 7 s d 0 h j j j q l l ",
"j 8 8 j E q l q q q q 0 9 0 s 0 s s 9 6 e e 6 y r 5 w y u u 9 w w w a i , , < #   - : 4 : + - : + @ w u 6 6 6 e s j d c q q g g ",
"g q q q l E q l b q j s 0 s s 7 0 6 6 3 6 e u y w w w r u 9 9 x 9 5 y i i : ; + + = : w w + : : : 4 w e u e 6 s 6 7 j g l g c R ",
"d j j x c E T E j q j 0 0 s s s 0 0 6 5 w u 6 e u u e 5 6 6 9 s w w 6 5 : : : : o ; + w w : - @ $ w r r e u 7 e 7 q j l c x g l ",
"q l M l c l q U q q 0 0 0 s x s 0 0 6 6 e w 5 6 C A s s e 6 6 e r w 5 w a 9 $ y + - - $ w w : o @ 4 u w e s s t 6 7 x l l c d d ",
"q q ! j j j q P q q q q 7 x x 7 6 s s s e e e w n s s e e u s t t s r 6 u u 5 : : - @ @ w u 4 @ O w y p 6 6 s e 0 h l ! T ! g q ",
"q q j j q q q q q P q q q x d s x 7 s s s s e D s e u 6 u C e t 7 7 u 6 y e y 5 : $ + @ w y w 4 $ w u S 6 6 s s 7 6 q l E P q q ",
"T 0 l ! q q P q L E E E j M ] x x c c x s t s D e s 0 u e e s t 7 t e s 0 u 6 $ : : $ @ w y w w 5 5 u S 5 5 u G q 7 l q q E ` l ",
"c q T l 8 q U q P E T T [ ) ! j M c M h s 0 s s 6 s n s 7 t s s q t e s w u w 4 $ $ 5 $ w y 5 y w 5 w D 9 6 0 0 h 0 c l q g T ) ",
"d l E T P q q 7 P ( P P E ! j c d s x q q s s s s s s 0 7 t t C M s s u e u u w 6 w w , y w $ 5 6 y e D 0 6 3 0 j q R g q q T ) ",
"R l ` } q 8 q q P _ ( ' ( c q q t 0 0 q l ( c s 6 s 0 0 t C s t t t t 6 u u C u u y 5 $ y $ $ 5 6 9 u G h 7 3 7 0 0 q l g E ( ( ",
"! d R ( T T E q P E P T R M j M 8 7 0 b V ] x 0 6 s s 7 0 7 6 6 6 7 6 0 9 S u u 5 $ $ : $ $ $ 5 6 y C G m 0 0 0 0 M M l ! | U l ",
"8 d l l b E M q q 8 q P E  .b q d x f [ l q s t t s s 7 x s 6 e s t x v u D y 5 $ $ $ y : : $ 5 y s 0 G m 7 7 7 x f c l q l q P ",
"q 7 d c ] ` E b l q l ! ( ( E h c Z x x s s 7 s t t 6 t s x s x s s s 0 6 y a y : $ o $ : $ y 9 s 0 9 v v 9 0 7 0 d ] R l g P q ",
"q q 8 R E l l ! j j ! ( } q j j s Z x 7 0 7 0 0 s 6 6 s x x x s s e 7 6 6 w u i , $ , w 5 5 u s 9 x v C v 0 0 0 d d 8 g q d 3 P ",
"T q q l b q q 0 q j M ] E q j j s Z x 7 0 7 0 8 6 s s u s s 0 t e 6 t 4 e r : w y w w w 5 u a 0 0 u s D G n q q s s 6 7 8 7 8 T ",
"q q 0 q q 0 0 0 0 s j s d d j x s C x s x 0 q M n x u 6 7 s t s s t e e 5 w 4 $ a u u s 9 5 5 y 9 s 0 m K v h h c 7 s 7 x j l ` ",
"8 8 8 7 6 0 0 M s s s s t 7 7 s x d D J J G M s j 0 h 0 7 e s 7 s 7 u e w $ 6 5 u a D y y 5 $ 5 9 s 0 0 v v v h j t 6 7 c l ! q ",
"6 6 7 7 6 e 9 s x e e u s 6 6 0 t s x x J n M j E j j x 6 s d t 7 t t 6 9 6 6 6 9 v u , 5 y y e u s 0 v m 0 0 s l d x j j R 0 3 ",
"2 2 6 6 2 6 5 y u e e u C s 7 0 s 0 7 7 s 0 0 j 0 j j s h t s s t 6 0 7 3 u 6 6 9 S y # 4 y u u s s 0 0 K 0 s h j d x x j M 0 2 ",
"e 5 2 5 3 e 4 w 5 6 e w u s s s e 9 s s s 0 0 ! s 0 j s s d x x j j j 0 8 6 6 $ y a y 5 5 9 y u u s 0 q n 0 V h c R Z x s s s C ",
"4 w $ 4 5 5 u w w e 6 w w C e u t u s 0 j j h J J q 7 3 7 s s M b j c d 0 u 5 y y i u a 5 5 w e 6 s d l q ]  .q x d x t u e e r ",
"@ w r w 5 w y r : 4 r w w r 6 6 t s 0 0 0 M v J J n 0 7 7 s s c M 0 s s s u u u u u 9 y y : e s s s x c q ] j 7 s s 6 6 e 4 4 4 ",
"w w $ $ $ 5 w 5 $ : : w : : y C s x v 0 j M 0 j b l 0 q d d 0 E ( v 7 7 0 s d D a u 9 5 y u C v x q R M l l j t 6 r e 4 w 4 e e ",
"w r   4 $ w y , # + ; , , : i D v x x J x c q j q q b M M 8 0 l j 0 0 n 0 h u s p u u h v v s n M x n j b h s s e e r w 4 @ 4 4 ",
"w : $ : : : $ , > & & # # ; y a x s s x j l l j b j M b ! x j J  .q j j n h 0 s s u s s j s v v J x s s s 0 s a p u e e 4 4 w w ",
"r 2 @ + # X & # & . & < , , ; i v s 0 n j q l q j j j j n M b ] ] b b n m n 0 0 0 0 0 s m 0 h v v j v v 9 e 9 e u u r r 4 5 r u ",
"5 5   + X . . + # # . * i , : w G s s n 0 j j ! M b ] [ [ [ ] [  . .V s h M V n j s s m m v v D s 9 v v 6 6 6 u 6 w e S u 5 e w ",
"4 : + ; . . . . # $ X . + i : , u s 0 n n M J J M V ` W ] b l l s q q 0 0 0 E E j 0 h v d s s v u 9 v u 6 6 C C y 6 9 a S 9 5 5 ",
"$ , # X % . X X # $ ; > # , $ , u x n D s s x x q j j q 0 q q l 0 q q q 0 q b b q 0 0 9 s 0 n s s u e u e e e u 6 w 6 9 p C w $ ",
", : : + X + X & , , , , # , 5 y y r D D u 6 0 d b q q q q q q l j q j U q q j q 0 q s 0 0 0 s s 9 u y 6 6 9 u C u y 5 9 a u w , ",
"i i : # ; ; > # 1 1 y 1 ; # , i : 4 5 u s 0 s l l q j j 0 0 0 q q 0 j q q q n 0 q j b 0 v 3 9 s u D C u u 9 9 u u 6 9 9 w y $ $ ",
"$ w a i : ; < * % , : $ + + : w - @ w s 0 6 s s s 7 d j d q j c q 0 q d q l E 7 T T q 0 6 0 s s s C p e 6 9 6 u p e e w u w w o ",
"5 y u i , 1 1 = X > $ 5 $ + 1 : @ $ w u 6 6 6 6 s x d c q q g g l 0 7 l l E q 0 q q s 0 6 0 s u 0 s u 6 5 6 9 u y w w r u y w w ",
"w 5 y a i 1 ; X + + : y w - - : : 4 r y u e 7 h 3 7 c g c j l E l d j q q M T l T x q v s 0 s 0 0 6 6 2 6 y r 6 y w w w u u 0 D ",
"w 6 w 4 w w : : + + ; 4 w : - @ $ 4 w w u e 7 e 7 d d d c c j l q q j l T E T E q q d 0 0 s j s 0 0 6 5 e u 6 e u u w 6 9 3 9 h ",
"y w 5 w u 6 $ y - ; @ $ w w $   @ 5 u y r s s s 7 0 g c l ! q q q l l l R l q E q 8 q 7 7 s x s 0 s 6 6 e 5 5 e x S u x 9 6 9 u ",
"9 u u 6 C y 5 y - - @ $ w r 5 4 O w y u 6 t t e t t l j E ` j q q l ! j x q q q q q q q 7 s x 7 s 9 0 s u e e w v s s e 6 u s 6 ",
"7 t u 6 u 6 w 4 : @ + $ 5 r 6 : $ $ u S 5 6 s e 7 7 q l U P q q q q j j q q q I P P T q q d x s x s s s s s e a 0 u e e r C e s ",
"7 7 e s s u w $ : : @ @ w e w w w 5 u D 5 6 s x s 0 d q q E ` M E 0 l l q q I I q ( T l x ] J q x x c c x 6 s x e s s e 6 e s 7 "
};
